<svg width="20" height="20" viewBox="0 0 20 20" fill="none" xmlns="http://www.w3.org/2000/svg">
<path d="M10 1.875C8.39303 1.875 6.82214 2.35152 5.486 3.24431C4.14985 4.1371 3.10844 5.40605 2.49348 6.8907C1.87852 8.37535 1.71762 10.009 2.03112 11.5851C2.34463 13.1612 3.11846 14.6089 4.25476 15.7452C5.39106 16.8815 6.8388 17.6554 8.4149 17.9689C9.99099 18.2824 11.6247 18.1215 13.1093 17.5065C14.594 16.8916 15.8629 15.8502 16.7557 14.514C17.6485 13.1779 18.125 11.607 18.125 10C18.1227 7.84581 17.266 5.78051 15.7427 4.25727C14.2195 2.73403 12.1542 1.87727 10 1.875ZM14.9484 9.04922L11.0109 10.3289L13.4445 13.6781C13.4955 13.7443 13.5326 13.8201 13.5538 13.9009C13.575 13.9817 13.5798 14.0659 13.5678 14.1486C13.5559 14.2313 13.5275 14.3107 13.4844 14.3822C13.4412 14.4537 13.3842 14.5159 13.3166 14.565C13.249 14.6141 13.1722 14.6491 13.0909 14.6681C13.0095 14.687 12.9252 14.6894 12.8429 14.6752C12.7606 14.661 12.6819 14.6304 12.6116 14.5853C12.5413 14.5402 12.4808 14.4814 12.4336 14.4125L10 11.0633L7.56641 14.4125C7.46714 14.5415 7.32147 14.6267 7.16037 14.6499C6.99928 14.6731 6.83547 14.6326 6.70379 14.537C6.5721 14.4413 6.48293 14.2981 6.45523 14.1377C6.42753 13.9773 6.4635 13.8124 6.55547 13.6781L8.98907 10.3289L5.05157 9.04922C4.89389 8.99804 4.763 8.88632 4.68769 8.73864C4.61238 8.59095 4.59883 8.4194 4.65 8.26172C4.70118 8.10404 4.8129 7.97315 4.96059 7.89784C5.10827 7.82253 5.27982 7.80898 5.4375 7.86016L9.375 9.14062V5C9.375 4.83424 9.44085 4.67527 9.55806 4.55806C9.67527 4.44085 9.83424 4.375 10 4.375C10.1658 4.375 10.3247 4.44085 10.4419 4.55806C10.5592 4.67527 10.625 4.83424 10.625 5V9.14062L14.5625 7.86094C14.6406 7.8356 14.7229 7.82588 14.8047 7.83235C14.8865 7.83881 14.9663 7.86133 15.0394 7.89862C15.1125 7.93591 15.1776 7.98724 15.2309 8.04967C15.2842 8.11211 15.3247 8.18443 15.35 8.2625C15.3753 8.34058 15.3851 8.42288 15.3786 8.50471C15.3721 8.58654 15.3496 8.66629 15.3123 8.73942C15.275 8.81254 15.2237 8.87761 15.1613 8.9309C15.0988 8.98419 15.0265 9.02466 14.9484 9.05V9.04922Z" fill="#247BA0"/>
</svg>
