<svg width="20" height="20" viewBox="0 0 20 20" fill="none" xmlns="http://www.w3.org/2000/svg">
<path d="M16.5627 15.6246C16.5628 16.0351 16.473 16.4406 16.2996 16.8127C16.1263 17.1848 15.8735 17.5145 15.5592 17.7785C15.2449 18.0425 14.8766 18.2345 14.4801 18.3411C14.0837 18.4476 13.6687 18.4661 13.2644 18.3952C12.8601 18.3242 12.4762 18.1657 12.1396 17.9306C11.8031 17.6955 11.5221 17.3896 11.3164 17.0344C11.1107 16.6792 10.9852 16.2832 10.9488 15.8743C10.9124 15.4654 10.966 15.0535 11.1057 14.6675L6.96508 12.0074C6.56962 12.3953 6.06842 12.6578 5.52434 12.7619C4.98027 12.8661 4.41756 12.8072 3.9068 12.5928C3.39604 12.3783 2.95999 12.0178 2.65334 11.5565C2.34669 11.0951 2.18311 10.5535 2.18311 9.99957C2.18311 9.44562 2.34669 8.904 2.65334 8.44267C2.95999 7.98133 3.39604 7.62083 3.9068 7.40638C4.41756 7.19192 4.98027 7.13308 5.52434 7.23722C6.06842 7.34136 6.56962 7.60385 6.96508 7.99176L11.1057 5.33551C10.8686 4.68398 10.8799 3.96793 11.1374 3.32419C11.3948 2.68045 11.8805 2.15414 12.5015 1.84584C13.1225 1.53755 13.8354 1.46887 14.5038 1.65294C15.1722 1.83701 15.7494 2.26092 16.1251 2.84367C16.5007 3.42642 16.6485 4.12715 16.5401 4.81195C16.4318 5.49676 16.0749 6.11764 15.5377 6.55594C15.0005 6.99425 14.3206 7.21925 13.628 7.18795C12.9354 7.15665 12.2785 6.87126 11.7831 6.38629L7.64243 9.04645C7.86621 9.66484 7.86621 10.3421 7.64243 10.9605L11.7831 13.6207C12.1784 13.2338 12.679 12.972 13.2224 12.8682C13.7657 12.7644 14.3276 12.8231 14.8377 13.0369C15.3478 13.2508 15.7836 13.6104 16.0904 14.0706C16.3972 14.5309 16.5615 15.0714 16.5627 15.6246Z" fill="#247BA0"/>
</svg>
