<svg width="20" height="20" viewBox="0 0 20 20" fill="none" xmlns="http://www.w3.org/2000/svg">
<path d="M10 1.875C8.39303 1.875 6.82214 2.35152 5.486 3.24431C4.14985 4.1371 3.10844 5.40605 2.49348 6.8907C1.87852 8.37535 1.71762 10.009 2.03112 11.5851C2.34463 13.1612 3.11846 14.6089 4.25476 15.7452C5.39106 16.8815 6.8388 17.6554 8.4149 17.9689C9.99099 18.2824 11.6247 18.1215 13.1093 17.5065C14.594 16.8916 15.8629 15.8502 16.7557 14.514C17.6485 13.1779 18.125 11.607 18.125 10C18.1227 7.84581 17.266 5.78051 15.7427 4.25727C14.2195 2.73403 12.1542 1.87727 10 1.875ZM12.9422 7.94219L9.0086 11.875H11.25C11.4158 11.875 11.5747 11.9408 11.6919 12.0581C11.8092 12.1753 11.875 12.3342 11.875 12.5C11.875 12.6658 11.8092 12.8247 11.6919 12.9419C11.5747 13.0592 11.4158 13.125 11.25 13.125H7.5C7.33424 13.125 7.17527 13.0592 7.05806 12.9419C6.94085 12.8247 6.875 12.6658 6.875 12.5V8.75C6.875 8.58424 6.94085 8.42527 7.05806 8.30806C7.17527 8.19085 7.33424 8.125 7.5 8.125C7.66576 8.125 7.82474 8.19085 7.94195 8.30806C8.05916 8.42527 8.125 8.58424 8.125 8.75V10.9914L12.0578 7.05781C12.1159 6.99974 12.1848 6.95368 12.2607 6.92225C12.3366 6.89083 12.4179 6.87465 12.5 6.87465C12.5821 6.87465 12.6634 6.89083 12.7393 6.92225C12.8152 6.95368 12.8841 6.99974 12.9422 7.05781C13.0003 7.11588 13.0463 7.18482 13.0777 7.26069C13.1092 7.33656 13.1254 7.41788 13.1254 7.5C13.1254 7.58212 13.1092 7.66344 13.0777 7.73931C13.0463 7.81518 13.0003 7.88412 12.9422 7.94219Z" fill="#247BA0"/>
</svg>
