<svg width="20" height="20" viewBox="0 0 20 20" fill="none" xmlns="http://www.w3.org/2000/svg">
<path d="M16.9195 3.08074C15.9268 2.0866 14.628 1.45595 13.2329 1.29055C11.8377 1.12514 10.4275 1.43463 9.2298 2.16908C8.03212 2.90352 7.11682 4.02008 6.63161 5.33858C6.1464 6.65707 6.11958 8.1006 6.55548 9.4362L2.24141 13.7503C2.12483 13.8659 2.03241 14.0036 1.96951 14.1553C1.9066 14.307 1.87448 14.4696 1.87501 14.6339V16.8753C1.87501 17.2068 2.0067 17.5247 2.24112 17.7592C2.47554 17.9936 2.79349 18.1253 3.12501 18.1253H5.62501C5.79077 18.1253 5.94974 18.0594 6.06695 17.9422C6.18416 17.825 6.25001 17.666 6.25001 17.5003V16.2503H7.50001C7.66577 16.2503 7.82474 16.1844 7.94195 16.0672C8.05916 15.95 8.12501 15.791 8.12501 15.6253V14.3753H9.37501C9.45711 14.3753 9.53842 14.3592 9.61429 14.3279C9.69016 14.2965 9.75911 14.2505 9.81719 14.1925L10.5641 13.4448C11.1892 13.6482 11.8426 13.7513 12.5 13.7503H12.5078C13.7433 13.7488 14.9507 13.3811 15.9773 12.6938C17.004 12.0064 17.8039 11.0302 18.276 9.88846C18.7481 8.74672 18.8712 7.49066 18.6298 6.27898C18.3883 5.06729 17.7932 3.95434 16.9195 3.08074ZM14.0625 7.18777C13.8153 7.18777 13.5736 7.11446 13.368 6.9771C13.1625 6.83975 13.0023 6.64453 12.9077 6.41612C12.813 6.18771 12.7883 5.93638 12.8365 5.6939C12.8848 5.45143 13.0038 5.2287 13.1786 5.05388C13.3534 4.87907 13.5762 4.76002 13.8186 4.71179C14.0611 4.66355 14.3125 4.68831 14.5409 4.78292C14.7693 4.87753 14.9645 5.03774 15.1018 5.24331C15.2392 5.44887 15.3125 5.69054 15.3125 5.93777C15.3125 6.26929 15.1808 6.58723 14.9464 6.82165C14.712 7.05607 14.394 7.18777 14.0625 7.18777Z" fill="#247BA0"/>
</svg>
